Coordinates
version=1
nRows=32
nColumns=12
inDegrees=yes

Units are S.I. units (second, meters, Newtons, ...)
Angles are in degrees

endheader
time	SC_y	SC_z	SC_x	AC_y	AC_z	AC_x	GH_y	GH_z	GH_yy	EL_x	PS_y
       0.0               -45.8          17.04          12.19          31.51         -2.067          -17.3          96.17          42.53         -136.4          37.67          42.02
   0.04233               -45.8          17.04           12.2          31.51         -2.068          -17.3          96.16          42.53         -136.4          37.67          42.03
   0.08467               -45.8          17.04          12.21          31.52         -2.069         -17.29          96.14          42.53         -136.4          37.68          42.05
     0.127              -45.81          17.04          12.22          31.53          -2.07         -17.29          96.13          42.53         -136.3          37.69          42.06
    0.1693              -45.81          17.04          12.23          31.53         -2.071         -17.28          96.11          42.54         -136.3           37.7          42.08
    0.2117              -45.81          17.04          12.24          31.54         -2.072         -17.28           96.1          42.54         -136.3          37.71          42.09
     0.254              -45.81          17.03          12.25          31.55         -2.074         -17.27          96.08          42.55         -136.2          37.72          42.11
    0.2963              -45.81          17.03          12.26          31.55         -2.075         -17.27          96.06          42.55         -136.2          37.74          42.13
    0.3387              -45.81          17.03          12.28          31.56         -2.076         -17.26          96.04          42.56         -136.1          37.75          42.15
     0.381              -45.81          17.03          12.29          31.57         -2.078         -17.26          96.02          42.56         -136.1          37.76          42.18
    0.4233              -45.81          17.03          12.31          31.58         -2.079         -17.25          95.99          42.57         -136.0          37.78           42.2
    0.4657              -45.81          17.03          12.32          31.59         -2.081         -17.24          95.97          42.57         -136.0          37.79          42.23
     0.508              -45.81          17.02          12.34           31.6         -2.083         -17.24          95.94          42.58         -135.9          37.81          42.26
    0.5503              -45.81          17.02          12.36          31.62         -2.085         -17.23          95.91          42.58         -135.9          37.83          42.29
    0.5927              -45.81          17.02          12.38          31.63         -2.087         -17.22          95.88          42.59         -135.8          37.85          42.32
     0.635              -45.81          17.02           12.4          31.64         -2.089         -17.21          95.84           42.6         -135.7          37.87          42.36
    0.6773              -45.81          17.01          12.43          31.66         -2.092          -17.2           95.8          42.61         -135.6          37.89           42.4
    0.7197              -45.81          17.01          12.45          31.67         -2.095         -17.19          95.76          42.62         -135.5          37.92          42.44
     0.762              -45.81          17.01          12.48          31.69         -2.098         -17.17          95.72          42.63         -135.4          37.95          42.49
    0.8043              -45.81           17.0          12.51          31.71         -2.101         -17.16          95.67          42.64         -135.3          37.98          42.54
    0.8467              -45.81           17.0          12.55          31.74         -2.105         -17.14          95.61          42.65         -135.2          38.01          42.59
     0.889              -45.81          16.99          12.59          31.76         -2.109         -17.13          95.55          42.67         -135.1          38.05          42.66
    0.9313              -45.81          16.99          12.63          31.79         -2.113         -17.11          95.49          42.68         -134.9          38.09          42.72
    0.9737              -45.81          16.98          12.68          31.82         -2.118         -17.09          95.41           42.7         -134.7          38.14           42.8
     1.016              -45.81          16.98          12.73          31.85         -2.124         -17.07          95.33          42.72         -134.6          38.19          42.88
     1.058              -45.81          16.97          12.79          31.89          -2.13         -17.04          95.24          42.74         -134.4          38.24          42.98
     1.101              -45.81          16.96          12.85          31.93         -2.137         -17.01          95.14          42.76         -134.1          38.31          43.08
     1.143              -45.82          16.95          12.93          31.97         -2.145         -16.98          95.03          42.79         -133.9          38.38           43.2
     1.185              -45.82          16.94          13.01          32.03         -2.153         -16.95           94.9          42.82         -133.6          38.46          43.34
     1.228              -45.82          16.93           13.1          32.09         -2.163         -16.91          94.75          42.85         -133.2          38.55          43.49
      1.27              -45.82          16.92          13.21          32.15         -2.175         -16.86          94.58          42.89         -132.9          38.66          43.66
     1.312              -45.82           16.9          13.33          32.23         -2.188         -16.81          94.39          42.93         -132.4          38.77          43.86
